<svg width="150" height="151" viewBox="0 0 150 151" fill="none" xmlns="http://www.w3.org/2000/svg">
<g clip-path="url(#clip0_2186_2349)">
<path d="M150 0.0793457H0V150.079H150V0.0793457Z" fill="#FF4500"/>
<path d="M117.539 90.0793C127.215 90.0793 135.059 82.2356 135.059 72.5598C135.059 62.884 127.215 55.0403 117.539 55.0403C107.863 55.0403 100.02 62.884 100.02 72.5598C100.02 82.2356 107.863 90.0793 117.539 90.0793Z" fill="url(#paint0_radial_2186_2349)"/>
<path d="M32.4609 90.0793C42.1367 90.0793 49.9805 82.2356 49.9805 72.5598C49.9805 62.884 42.1367 55.0403 32.4609 55.0403C22.7852 55.0403 14.9414 62.884 14.9414 72.5598C14.9414 82.2356 22.7852 90.0793 32.4609 90.0793Z" fill="url(#paint1_radial_2186_2349)"/>
<path d="M75.0586 125.06C102.662 125.06 125.039 108.27 125.039 87.5598C125.039 66.8491 102.662 50.0598 75.0586 50.0598C47.4551 50.0598 25.0781 66.8491 25.0781 87.5598C25.0781 108.27 47.4551 125.06 75.0586 125.06Z" fill="url(#paint2_radial_2186_2349)"/>
<path d="M60.2343 83.927C59.9414 90.2551 55.7226 92.5989 50.8007 92.5989C45.8789 92.5989 42.1289 89.3176 42.4218 82.9895C42.7148 76.6614 46.9335 72.4426 51.8554 72.4426C56.7773 72.4426 60.5273 77.5989 60.2343 83.927Z" fill="#842123"/>
<path d="M107.578 82.9895C107.871 89.3176 104.121 92.5989 99.1992 92.5989C94.2773 92.5989 90.0585 90.3137 89.7656 83.927C89.4726 77.5989 93.2226 72.4426 98.1445 72.4426C103.066 72.4426 107.285 76.6028 107.578 82.9895Z" fill="#842123"/>
<path d="M89.8242 84.5129C90.1171 90.4309 94.0429 92.5989 98.6132 92.5989C103.184 92.5989 106.699 89.3762 106.465 83.3997C106.172 77.4817 102.246 73.5559 97.6757 73.5559C93.1054 73.5559 89.5312 78.5364 89.8242 84.5129Z" fill="url(#paint3_radial_2186_2349)"/>
<path d="M60.2343 84.5129C59.9414 90.4309 56.0156 92.5989 51.4453 92.5989C46.875 92.5989 43.3593 89.3762 43.6523 83.3997C43.9453 77.4817 47.8711 73.5559 52.4414 73.5559C57.0117 73.5559 60.5273 78.5364 60.2343 84.5129Z" fill="url(#paint4_radial_2186_2349)"/>
<path d="M75.0587 96.8176C68.8478 96.8176 62.9298 97.1106 57.422 97.6379C56.4845 97.7551 55.8985 98.6926 56.2501 99.5129C59.297 106.72 66.5626 111.818 75.0587 111.818C83.5548 111.818 90.7618 106.779 93.8673 99.5129C94.2188 98.634 93.6329 97.6965 92.6954 97.6379C87.1876 97.1106 81.2696 96.8176 75.0587 96.8176Z" fill="#BBCFDA"/>
<path d="M75.0587 98.2239C68.8478 98.2239 62.9298 98.5168 57.4806 99.1028C56.5431 99.22 55.9571 100.157 56.3087 101.036C59.3556 108.361 66.6212 113.517 75.0587 113.517C83.4962 113.517 90.7618 108.361 93.8087 101.036C94.1603 100.157 93.5743 99.22 92.6368 99.1028C87.129 98.5168 81.211 98.2239 75.0587 98.2239Z" fill="white"/>
<path d="M75.0587 97.4622C68.9649 97.4622 63.1642 97.7551 57.7735 98.2825C56.836 98.3997 56.2501 99.3372 56.6017 100.157C59.6485 107.365 66.7384 112.462 75.0587 112.462C83.379 112.462 90.4689 107.423 93.5157 100.157C93.8673 99.2786 93.2814 98.3411 92.3439 98.2825C86.9532 97.8137 81.1524 97.4622 75.0587 97.4622Z" fill="url(#paint5_radial_2186_2349)"/>
<path d="M102.422 45.0208C109.282 45.0208 114.844 39.4593 114.844 32.5989C114.844 25.7385 109.282 20.177 102.422 20.177C95.5615 20.177 90 25.7385 90 32.5989C90 39.4593 95.5615 45.0208 102.422 45.0208Z" fill="url(#paint6_radial_2186_2349)"/>
<path d="M74.8828 51.6418C73.418 51.6418 72.1875 50.9973 72.1875 50.0598C72.1875 38.927 81.2109 29.9036 92.3438 29.9036C93.8086 29.9036 95.0391 31.134 95.0391 32.5989C95.0391 34.0637 93.8086 35.2942 92.3438 35.2942C84.1992 35.2942 77.5781 41.9153 77.5781 50.0598C77.5781 51.0559 76.3477 51.6418 74.8828 51.6418Z" fill="url(#paint7_radial_2186_2349)"/>
<path d="M57.0117 87.4426C57.0117 89.7278 54.5508 90.7825 51.5625 90.7825C48.5742 90.7825 46.1133 89.7278 46.1133 87.4426C46.1133 85.1575 48.5742 83.2825 51.5625 83.2825C54.5508 83.2825 57.0117 85.0989 57.0117 87.4426Z" fill="#FF6101"/>
<path d="M104.004 87.4426C104.004 89.7278 101.543 90.7825 98.5547 90.7825C95.5664 90.7825 93.1055 89.7278 93.1055 87.4426C93.1055 85.1575 95.5664 83.2825 98.5547 83.2825C101.543 83.2825 104.004 85.0989 104.004 87.4426Z" fill="#FF6101"/>
<path d="M55.3125 81.1731C56.3804 81.1731 57.2461 80.2287 57.2461 79.0637C57.2461 77.8987 56.3804 76.9543 55.3125 76.9543C54.2446 76.9543 53.3789 77.8987 53.3789 79.0637C53.3789 80.2287 54.2446 81.1731 55.3125 81.1731Z" fill="#FFC49C"/>
<path d="M101.543 81.1731C102.611 81.1731 103.477 80.2287 103.477 79.0637C103.477 77.8987 102.611 76.9543 101.543 76.9543C100.475 76.9543 99.6094 77.8987 99.6094 79.0637C99.6094 80.2287 100.475 81.1731 101.543 81.1731Z" fill="#FFC49C"/>
</g>
<defs>
<radialGradient id="paint0_radial_2186_2349" cx="0" cy="0" r="1" gradientUnits="userSpaceOnUse" gradientTransform="translate(116.785 63.1013) scale(35.0985 30.6179)">
<stop stop-color="#FEFFFF"/>
<stop offset="0.4" stop-color="#FEFFFF"/>
<stop offset="0.51" stop-color="#F9FCFC"/>
<stop offset="0.62" stop-color="#EDF3F5"/>
<stop offset="0.7" stop-color="#DEE9EC"/>
<stop offset="0.72" stop-color="#D8E4E8"/>
<stop offset="0.76" stop-color="#CCD8DF"/>
<stop offset="0.8" stop-color="#C8D5DD"/>
<stop offset="0.83" stop-color="#CCD6DE"/>
<stop offset="0.85" stop-color="#D8DBE2"/>
<stop offset="0.88" stop-color="#EDE3E9"/>
<stop offset="0.9" stop-color="#FFEBEF"/>
</radialGradient>
<radialGradient id="paint1_radial_2186_2349" cx="0" cy="0" r="1" gradientUnits="userSpaceOnUse" gradientTransform="translate(31.7537 63.1013) scale(35.0985 30.6179)">
<stop stop-color="#FEFFFF"/>
<stop offset="0.4" stop-color="#FEFFFF"/>
<stop offset="0.51" stop-color="#F9FCFC"/>
<stop offset="0.62" stop-color="#EDF3F5"/>
<stop offset="0.7" stop-color="#DEE9EC"/>
<stop offset="0.72" stop-color="#D8E4E8"/>
<stop offset="0.76" stop-color="#CCD8DF"/>
<stop offset="0.8" stop-color="#C8D5DD"/>
<stop offset="0.83" stop-color="#CCD6DE"/>
<stop offset="0.85" stop-color="#D8DBE2"/>
<stop offset="0.88" stop-color="#EDE3E9"/>
<stop offset="0.9" stop-color="#FFEBEF"/>
</radialGradient>
<radialGradient id="paint2_radial_2186_2349" cx="0" cy="0" r="1" gradientUnits="userSpaceOnUse" gradientTransform="translate(75.3799 58.1902) scale(105.871 74.3351)">
<stop stop-color="#FEFFFF"/>
<stop offset="0.4" stop-color="#FEFFFF"/>
<stop offset="0.51" stop-color="#F9FCFC"/>
<stop offset="0.62" stop-color="#EDF3F5"/>
<stop offset="0.7" stop-color="#DEE9EC"/>
<stop offset="0.72" stop-color="#D8E4E8"/>
<stop offset="0.76" stop-color="#CCD8DF"/>
<stop offset="0.8" stop-color="#C8D5DD"/>
<stop offset="0.83" stop-color="#CCD6DE"/>
<stop offset="0.85" stop-color="#D8DBE2"/>
<stop offset="0.88" stop-color="#EDE3E9"/>
<stop offset="0.9" stop-color="#FFEBEF"/>
</radialGradient>
<radialGradient id="paint3_radial_2186_2349" cx="0" cy="0" r="1" gradientUnits="userSpaceOnUse" gradientTransform="translate(97.8418 88.5391) rotate(180) scale(8.84555 12.986)">
<stop stop-color="#FF6600"/>
<stop offset="0.5" stop-color="#FF4500"/>
<stop offset="0.7" stop-color="#FC4301"/>
<stop offset="0.82" stop-color="#F43F07"/>
<stop offset="0.92" stop-color="#E53812"/>
<stop offset="1" stop-color="#D4301F"/>
</radialGradient>
<radialGradient id="paint4_radial_2186_2349" cx="0" cy="0" r="1" gradientUnits="userSpaceOnUse" gradientTransform="translate(51.8478 88.5391) scale(8.84555 12.986)">
<stop stop-color="#FF6600"/>
<stop offset="0.5" stop-color="#FF4500"/>
<stop offset="0.7" stop-color="#FC4301"/>
<stop offset="0.82" stop-color="#F43F07"/>
<stop offset="0.92" stop-color="#E53812"/>
<stop offset="1" stop-color="#D4301F"/>
</radialGradient>
<radialGradient id="paint5_radial_2186_2349" cx="0" cy="0" r="1" gradientUnits="userSpaceOnUse" gradientTransform="translate(74.2179 114.283) scale(31.1907 20.5726)">
<stop stop-color="#172E35"/>
<stop offset="0.29" stop-color="#0E1C21"/>
<stop offset="0.73" stop-color="#030708"/>
<stop offset="1"/>
</radialGradient>
<radialGradient id="paint6_radial_2186_2349" cx="0" cy="0" r="1" gradientUnits="userSpaceOnUse" gradientTransform="translate(101.727 20.0634) scale(27.3793 27.3793)">
<stop stop-color="#FEFFFF"/>
<stop offset="0.4" stop-color="#FEFFFF"/>
<stop offset="0.51" stop-color="#F9FCFC"/>
<stop offset="0.62" stop-color="#EDF3F5"/>
<stop offset="0.7" stop-color="#DEE9EC"/>
<stop offset="0.72" stop-color="#D8E4E8"/>
<stop offset="0.76" stop-color="#CCD8DF"/>
<stop offset="0.8" stop-color="#C8D5DD"/>
<stop offset="0.83" stop-color="#CCD6DE"/>
<stop offset="0.85" stop-color="#D8DBE2"/>
<stop offset="0.88" stop-color="#EDE3E9"/>
<stop offset="0.9" stop-color="#FFEBEF"/>
</radialGradient>
<radialGradient id="paint7_radial_2186_2349" cx="0" cy="0" r="1" gradientUnits="userSpaceOnUse" gradientTransform="translate(90.3144 49.9109) scale(22.4416)">
<stop offset="0.48" stop-color="#7A9299"/>
<stop offset="0.67" stop-color="#172E35"/>
<stop offset="0.75"/>
<stop offset="0.82" stop-color="#172E35"/>
</radialGradient>
<clipPath id="clip0_2186_2349">
<rect y="0.0793457" width="150" height="150" rx="75" fill="white"/>
</clipPath>
</defs>
</svg> 